<svg width="191.000000" height="129.000000" viewBox="0 0 191 129" fill="none" xmlns="http://www.w3.org/2000/svg" xmlns:xlink="http://www.w3.org/1999/xlink">
	<desc>
			Created with Pixso.
	</desc>
	<defs/>
	<path id="Vector" d="M40.64 92.86C40.13 92.86 39.63 92.71 39.21 92.43C38.78 92.15 38.45 91.75 38.24 91.28C38.04 90.81 37.97 90.3 38.06 89.79C38.14 89.29 38.37 88.82 38.71 88.44C40.67 86.3 42.46 84.01 44.07 81.59C44.46 81.02 45.06 80.62 45.74 80.49C46.42 80.36 47.13 80.5 47.71 80.88C48.28 81.27 48.69 81.86 48.83 82.54C48.97 83.22 48.84 83.93 48.47 84.51C46.71 87.16 44.75 89.66 42.61 92C42.36 92.28 42.05 92.5 41.72 92.64C41.38 92.79 41.01 92.87 40.64 92.86Z" fill="#ffff" fill-opacity="1.000000" fill-rule="nonzero"/>
	<path id="Vector" d="M61.34 80.76C57.24 80.76 51.87 79.71 44.99 77.64C36.62 75.27 31.82 72 28.94 66.7C28.67 66.09 28.63 65.39 28.84 64.76C29.06 64.12 29.5 63.59 30.09 63.27C30.68 62.95 31.37 62.87 32.02 63.04C32.66 63.21 33.22 63.62 33.58 64.19C35.74 68.17 39.47 70.61 46.44 72.58L46.48 72.58C57.82 75.99 64.73 76.39 66.49 73.75C66.59 73.56 66.66 73.35 66.68 73.13C66.71 72.91 66.68 72.68 66.61 72.47C66.34 71.5 65.3 70.53 63.69 69.75C61.43 68.69 60.14 68.17 58.5 67.51C57.03 66.92 55.37 66.25 52.63 65.03C43.35 60.99 42.71 53.62 42.69 53.3L47.95 52.93L47.95 52.89C47.97 53.08 48.51 57.48 54.75 60.2C57.43 61.39 59.05 62.04 60.48 62.62C62.12 63.29 63.54 63.86 65.96 65C69.83 66.87 71.21 69.33 71.7 71.07C71.97 72.01 72.04 72.99 71.9 73.95C71.76 74.92 71.42 75.84 70.9 76.67C69.09 79.39 66.03 80.76 61.34 80.76Z" fill="#ffff" fill-opacity="1.000000" fill-rule="nonzero"/>
	<path id="Vector" d="M36.51 128.06C36.08 128.06 35.67 128.06 35.31 128.02C34.37 128 23.31 127.74 19.75 127.53L19.72 127.53C14.34 127.12 11.11 125.56 9.86 122.77C8.16 118.98 11.12 115.06 12.09 113.77L12.13 113.72C13.16 112.44 13.13 111.97 12.93 111.16C12.71 110.44 11.99 109.55 11.1 108.43C9.16 106 6.3 102.43 4.39 95.59C3.43 95.46 2.52 95.05 1.78 94.42C1.03 93.79 0.48 92.96 0.19 92.03C-0.02 91.31 -0.06 90.55 0.06 89.81C0.19 89.06 0.47 88.36 0.9 87.74C1.4 87.02 2.04 86.42 2.78 85.97C3.24 74.37 10.18 58.69 11 56.87C12.73 53.03 13.77 48.91 14.06 44.71L14.06 44.51L14.1 44.3C19 17.25 34.87 7.74 38.55 5.88C42.4 0.5 47.35 -0.54 50.52 0.25C51.09 0.38 51.62 0.65 52.08 1.02C52.53 1.39 52.89 1.86 53.13 2.4C53.77 3.82 53.5 5.51 53.07 6.84C53.84 7.66 54.89 8.81 55.91 10.05C59.23 14.11 60.31 16.77 59.53 18.9C59.28 19.59 61.64 22.16 64.29 24.96L64.44 25.13C65 25.83 66.08 27.8 63.98 30.85C62.35 33.2 58.5 36.51 55.09 35.39C54.46 35.19 53.6 34.89 52.56 34.5C52.04 35.69 52.05 37.21 52.56 38.93C52.69 39.33 52.85 39.82 53.04 40.36C54.53 44.5 55.57 48.79 56.14 53.15C56.19 53.49 56.16 53.84 56.06 54.18C55.97 54.51 55.81 54.82 55.6 55.1C55.38 55.37 55.12 55.6 54.81 55.77C54.51 55.94 54.18 56.05 53.84 56.09C53.49 56.13 53.14 56.1 52.81 56.01C52.48 55.91 52.17 55.75 51.89 55.54C51.62 55.32 51.39 55.06 51.22 54.75C51.05 54.45 50.95 54.12 50.91 53.77C50.38 49.78 49.42 45.85 48.04 42.07C47.84 41.47 47.67 40.95 47.53 40.51C46.23 36.36 47.12 33.38 48.09 31.62C48.31 31.21 48.55 30.83 48.83 30.46C49.14 30.05 49.49 29.68 49.87 29.34L51.07 28.28L52.56 28.85C54.3 29.53 55.68 30.03 56.55 30.32C57.34 30.19 58.99 28.8 59.67 27.79C55.72 23.61 53.39 20.88 54.45 17.41C54.08 16.07 51.21 12.39 48.1 9.33L46.71 7.96L47.61 6.23C47.75 5.94 47.87 5.64 47.98 5.34C46.49 5.53 44.43 6.54 42.53 9.45L42.1 10.09L41.35 10.4C41.32 10.42 37.03 12.33 32.19 17.55C27.73 22.35 21.91 31.02 19.32 45.09C18.99 49.92 17.8 54.66 15.8 59.07C12.9 65.5 7.98 78.67 8.04 87.22C8.06 87.9 7.87 88.57 7.48 89.13C7.1 89.69 6.55 90.11 5.91 90.34C6.5 90.28 7.1 90.4 7.63 90.69C8.15 90.99 8.57 91.43 8.83 91.97L8.96 92.24L9.03 92.53C10.65 99.43 13.18 102.58 15.2 105.12C16.44 106.66 17.5 108 18 109.75L18.02 109.83C18.68 112.47 18.15 114.61 16.27 116.99C14.31 119.6 14.62 120.5 14.66 120.6C14.7 120.69 15.29 121.88 20.09 122.25C23.66 122.47 35.36 122.74 35.47 122.74L35.57 122.74C36.28 122.78 36.98 122.76 37.68 122.69C35.75 121.3 32.77 121.37 30.56 121.42C29.61 121.49 28.66 121.45 27.72 121.3C24.84 120.66 24.22 118.94 24.11 117.97C23.79 115.11 26.85 113.03 31.9 110.61L32.01 110.56C33.68 109.85 41.92 105.98 41.13 99.18C39.84 92.46 37.03 89.47 32.56 85.37C32.11 84.89 31.86 84.25 31.85 83.58C31.85 82.92 32.09 82.28 32.54 81.79C32.99 81.3 33.6 80.99 34.26 80.94C34.92 80.88 35.58 81.07 36.1 81.48C41.08 86.05 44.73 89.94 46.31 98.27L46.34 98.43C47.37 106.64 40.71 112.57 34.12 115.4C33.58 115.65 33.1 115.89 32.67 116.12C35.43 116.18 38.89 116.66 41.56 119.05L41.64 119.12C43.76 121.18 44.42 123.16 43.62 125.01C42.51 127.55 39.08 128.06 36.51 128.06ZM54.56 17.09L54.56 17.12L54.56 17.09Z" fill="#ffff" fill-opacity="1.000000" fill-rule="nonzero"/>
	<path id="Vector" d="M149.85 92.86C149.48 92.86 149.12 92.79 148.78 92.64C148.45 92.49 148.15 92.27 147.9 92C145.76 89.66 143.8 87.15 142.04 84.51C141.65 83.92 141.52 83.21 141.65 82.52C141.79 81.84 142.2 81.23 142.78 80.85C143.37 80.46 144.08 80.32 144.76 80.46C145.45 80.6 146.05 81 146.44 81.59C148.05 84.01 149.84 86.3 151.8 88.44C152.14 88.82 152.37 89.29 152.46 89.8C152.54 90.3 152.47 90.82 152.27 91.29C152.06 91.76 151.72 92.16 151.29 92.44C150.86 92.72 150.36 92.87 149.85 92.87L149.85 92.86Z" fill="#ffff" fill-opacity="1.000000" fill-rule="nonzero"/>
	<path id="Vector" d="M129.14 80.76C124.45 80.76 121.41 79.4 119.61 76.65C119.08 75.82 118.73 74.89 118.59 73.92C118.45 72.95 118.52 71.96 118.79 71.02C119.28 69.28 120.66 66.81 124.51 64.96C126.95 63.81 128.37 63.24 130.02 62.57C131.45 62 133.06 61.34 135.73 60.16C141.99 57.43 142.52 53.03 142.54 52.84L142.54 52.88L147.8 53.25C147.78 53.57 147.14 60.94 137.85 64.99C135.12 66.2 133.46 66.87 132 67.47C130.36 68.13 129.07 68.65 126.78 69.73C125.19 70.49 124.16 71.46 123.88 72.44C123.82 72.65 123.79 72.88 123.82 73.1C123.84 73.33 123.91 73.54 124.02 73.74C125.76 76.35 132.67 75.95 144.01 72.54L144.06 72.54C151.03 70.57 154.75 68.14 156.92 64.15C157.27 63.56 157.83 63.13 158.49 62.95C159.15 62.76 159.85 62.84 160.45 63.17C161.05 63.5 161.5 64.05 161.71 64.7C161.92 65.36 161.86 66.07 161.55 66.68C158.68 71.98 153.88 75.26 145.51 77.63C138.61 79.71 133.25 80.76 129.14 80.76Z" fill="#ffff" fill-opacity="1.000000" fill-rule="nonzero"/>
	<path id="Vector" d="M153.98 128.06C151.41 128.06 147.98 127.55 146.86 125.01C146.05 123.16 146.72 121.18 148.84 119.12L148.91 119.04C151.58 116.65 155.03 116.17 157.8 116.11C157.37 115.89 156.89 115.65 156.35 115.39C149.76 112.56 143.1 106.63 144.13 98.42L144.16 98.26C145.73 89.92 149.37 86.04 154.36 81.47C154.62 81.23 154.92 81.05 155.24 80.93C155.57 80.81 155.92 80.76 156.26 80.78C156.61 80.79 156.95 80.88 157.26 81.02C157.58 81.17 157.86 81.38 158.09 81.63C158.32 81.89 158.51 82.19 158.62 82.51C158.74 82.84 158.8 83.19 158.78 83.53C158.77 83.88 158.68 84.22 158.53 84.54C158.39 84.85 158.18 85.13 157.93 85.37C153.46 89.47 150.64 92.46 149.36 99.17C148.58 105.98 156.81 109.85 158.48 110.56L158.59 110.61C163.64 113.03 166.71 115.1 166.38 117.97C166.27 118.94 165.65 120.66 162.77 121.3C161.83 121.45 160.88 121.49 159.93 121.42C157.72 121.37 154.74 121.3 152.81 122.69C153.51 122.76 154.22 122.78 154.92 122.74L155.02 122.74C155.13 122.74 166.83 122.47 170.4 122.25C175.2 121.88 175.8 120.64 175.83 120.59C175.86 120.54 176.2 119.6 174.22 116.98C172.34 114.6 171.81 112.46 172.47 109.83L172.49 109.75C172.99 107.99 174.06 106.66 175.29 105.11C177.31 102.58 179.84 99.42 181.46 92.53L181.53 92.24L181.66 91.96C181.92 91.43 182.34 90.98 182.86 90.69C183.39 90.4 183.98 90.27 184.58 90.33C183.94 90.11 183.38 89.68 183 89.11C182.62 88.55 182.42 87.87 182.45 87.19C182.5 78.66 177.59 65.5 174.69 59.06C172.69 54.65 171.5 49.92 171.17 45.08C166.18 17.97 149.28 10.46 149.13 10.4L148.38 10.09L147.95 9.42C146.05 6.53 143.97 5.53 142.5 5.32C142.6 5.62 142.73 5.92 142.87 6.21L143.75 7.93L142.37 9.3C139.26 12.37 136.37 16.05 136.02 17.39C137.05 20.87 134.72 23.6 130.79 27.77C131.46 28.78 133.12 30.17 133.91 30.3C134.78 30.01 136.14 29.5 137.89 28.83L139.38 28.26L140.59 29.32C140.96 29.66 141.31 30.03 141.62 30.44C141.9 30.81 142.15 31.19 142.37 31.6C143.34 33.36 144.23 36.33 142.93 40.49C142.79 40.92 142.61 41.45 142.41 42.05C141.03 45.83 140.07 49.76 139.55 53.75C139.46 54.45 139.11 55.08 138.56 55.52C138.01 55.95 137.31 56.15 136.62 56.06C135.92 55.98 135.29 55.63 134.86 55.08C134.42 54.52 134.23 53.82 134.31 53.13C134.88 48.77 135.92 44.48 137.41 40.35C137.6 39.79 137.76 39.31 137.89 38.91C138.43 37.19 138.43 35.67 137.89 34.47C136.84 34.87 135.99 35.17 135.37 35.37C131.93 36.49 128.09 33.18 126.47 30.83C124.37 27.77 125.45 25.81 126.01 25.1L126.16 24.94C128.81 22.14 131.17 19.57 130.91 18.85C130.14 16.73 131.22 14.09 134.54 10.03C135.56 8.79 136.61 7.64 137.38 6.82C136.95 5.49 136.68 3.8 137.32 2.38C137.56 1.84 137.92 1.37 138.37 1C138.82 0.62 139.36 0.36 139.93 0.23C143.09 -0.56 148.05 0.48 151.89 5.87C155.58 7.73 171.45 17.24 176.35 44.3L176.39 44.5L176.39 44.71C176.67 48.91 177.71 53.02 179.45 56.86C180.26 58.67 187.21 74.37 187.66 85.96C188.41 86.41 189.05 87.01 189.54 87.73C189.97 88.35 190.26 89.06 190.38 89.8C190.5 90.54 190.46 91.3 190.25 92.03C189.96 92.95 189.41 93.78 188.67 94.41C187.93 95.04 187.03 95.44 186.07 95.58C184.15 102.41 181.3 105.98 179.37 108.41C178.47 109.53 177.76 110.42 177.54 111.15C177.34 111.95 177.31 112.42 178.33 113.7L178.37 113.76C179.34 115.04 182.31 118.96 180.6 122.75C179.35 125.54 176.14 127.1 170.74 127.51L170.7 127.51C167.14 127.73 156.08 127.99 155.15 128.01C154.82 128.05 154.41 128.06 153.98 128.06ZM135.92 17.06L135.92 17.1L135.92 17.06Z" fill="#ffff" fill-opacity="1.000000" fill-rule="nonzero"/>
	<path id="Vector" d="M129.31 58.56C128.97 58.56 128.62 58.49 128.3 58.36C127.98 58.22 127.69 58.03 127.44 57.78C127.2 57.54 127 57.25 126.87 56.92C126.74 56.6 126.67 56.26 126.67 55.91L126.67 53.07C126.67 51.87 125.89 50.85 124.96 50.85L65.51 50.85C64.59 50.85 63.81 51.87 63.81 53.07L63.81 55.91C63.82 56.27 63.76 56.62 63.63 56.95C63.51 57.29 63.32 57.59 63.07 57.85C62.82 58.1 62.53 58.31 62.2 58.44C61.87 58.58 61.52 58.66 61.17 58.66C60.81 58.66 60.46 58.58 60.14 58.44C59.81 58.31 59.51 58.1 59.27 57.85C59.02 57.59 58.83 57.29 58.7 56.95C58.58 56.62 58.52 56.27 58.53 55.91L58.53 53.07C58.53 48.93 61.67 45.57 65.51 45.57L124.96 45.57C128.81 45.57 131.95 48.92 131.95 53.07L131.95 55.91C131.95 56.61 131.67 57.29 131.18 57.78C130.68 58.28 130.01 58.56 129.31 58.56Z" fill="#ffff" fill-opacity="1.000000" fill-rule="nonzero"/>
	<path id="Vector" d="M124.96 100.19L65.51 100.19C61.67 100.19 58.53 96.83 58.53 92.69L58.53 86.99C58.56 86.31 58.85 85.66 59.34 85.18C59.83 84.71 60.49 84.44 61.17 84.44C61.85 84.44 62.51 84.71 63 85.18C63.49 85.66 63.78 86.31 63.81 86.99L63.81 92.69C63.81 93.89 64.59 94.9 65.51 94.9L124.96 94.9C125.89 94.9 126.67 93.89 126.67 92.69L126.67 86.99C126.67 86.29 126.95 85.62 127.45 85.12C127.94 84.62 128.61 84.34 129.31 84.34C130.01 84.34 130.68 84.62 131.18 85.12C131.67 85.62 131.95 86.29 131.95 86.99L131.95 92.69C131.95 96.82 128.81 100.19 124.96 100.19Z" fill="#ffff" fill-opacity="1.000000" fill-rule="nonzero"/>
</svg>
